<?xml version="1.0" encoding="utf-8"?>
<!-- Generator: Adobe Illustrator 16.0.3, SVG Export Plug-In . SVG Version: 6.00 Build 0)  -->
<!DOCTYPE svg PUBLIC "-//W3C//DTD SVG 1.1//EN" "http://www.w3.org/Graphics/SVG/1.1/DTD/svg11.dtd">
<svg version="1.1" id="Capa_1" xmlns="http://www.w3.org/2000/svg" xmlns:xlink="http://www.w3.org/1999/xlink" x="0px" y="0px"
	 width="658.613px" height="137.806px" viewBox="0 0 658.613 137.806" enable-background="new 0 0 658.613 137.806"
	 xml:space="preserve">
<g>
	<polygon fill="#FFFFFF" points="67.072,0 0,67.072 0,137.806 591.541,137.806 658.613,70.733 658.613,0 	"/>
	<g>
		<path d="M91.99,95.477c-3.782,0-7.081-0.746-9.899-2.238c-2.821-1.493-5.01-3.647-6.568-6.469
			c-1.559-2.817-2.338-6.183-2.338-10.098V59.161c0-0.994-0.232-1.874-0.696-2.638c-0.464-0.762-1.094-1.376-1.891-1.841
			c-0.795-0.463-1.657-0.696-2.587-0.696c-0.929,0-1.792,0.233-2.587,0.696c-0.796,0.465-1.427,1.079-1.891,1.841
			c-0.465,0.764-0.696,1.644-0.696,2.638v35.122H49.206V61.15c0-4.311,0.846-7.844,2.537-10.597
			c1.692-2.751,3.964-4.808,6.815-6.169c2.853-1.358,6.002-2.039,9.452-2.039c3.448,0,6.582,0.681,9.403,2.039
			c2.818,1.361,5.09,3.418,6.815,6.169c1.724,2.753,2.587,6.286,2.587,10.597v17.511c0,0.931,0.232,1.792,0.696,2.587
			c0.463,0.797,1.095,1.428,1.891,1.892s1.657,0.695,2.587,0.695c0.995,0,1.874-0.231,2.637-0.695
			c0.762-0.464,1.376-1.095,1.841-1.892c0.463-0.795,0.695-1.656,0.695-2.587V61.15c0-4.311,0.862-7.844,2.588-10.597
			c1.725-2.751,4.014-4.808,6.866-6.169c2.85-1.358,5.969-2.039,9.353-2.039c3.448,0,6.599,0.681,9.452,2.039
			c2.851,1.361,5.123,3.418,6.815,6.169c1.69,2.753,2.537,6.286,2.537,10.597v33.133h-13.633V59.161
			c0-0.994-0.231-1.874-0.694-2.638c-0.465-0.762-1.08-1.376-1.842-1.841c-0.763-0.463-1.641-0.696-2.636-0.696
			c-0.931,0-1.792,0.233-2.588,0.696c-0.796,0.465-1.427,1.079-1.89,1.841c-0.465,0.764-0.697,1.644-0.697,2.638v17.511
			c0,3.915-0.78,7.28-2.338,10.098c-1.559,2.821-3.749,4.976-6.566,6.469C99.07,94.73,95.771,95.477,91.99,95.477z"/>
	</g>
	<g>
		<path d="M167.763,95.246c-3.93,0-7.526-0.652-10.792-1.953c-3.267-1.303-6.071-3.124-8.415-5.468
			c-2.344-2.343-4.166-5.076-5.467-8.202c-1.304-3.123-1.954-6.506-1.954-10.152c0-3.645,0.65-7.041,1.954-10.19
			c1.301-3.147,3.123-5.881,5.467-8.2s5.148-4.13,8.415-5.432c3.266-1.302,6.862-1.953,10.792-1.953
			c3.977,0,7.585,0.651,10.828,1.953c3.241,1.302,6.047,3.112,8.414,5.432s4.189,5.053,5.468,8.2
			c1.278,3.149,1.918,6.546,1.918,10.19c0,3.646-0.64,7.029-1.918,10.152c-1.278,3.126-3.101,5.859-5.468,8.202
			c-2.367,2.344-5.173,4.165-8.414,5.468C175.348,94.594,171.739,95.246,167.763,95.246z M167.763,84.026
			c1.94,0,3.704-0.366,5.29-1.1c1.586-0.735,2.958-1.776,4.119-3.126c1.159-1.349,2.034-2.898,2.626-4.65
			c0.592-1.75,0.888-3.645,0.888-5.68s-0.296-3.941-0.888-5.716c-0.592-1.776-1.467-3.325-2.626-4.651
			c-1.161-1.325-2.533-2.354-4.119-3.089c-1.586-0.732-3.35-1.101-5.29-1.101c-1.894,0-3.646,0.368-5.255,1.101
			c-1.609,0.734-2.982,1.764-4.118,3.089c-1.135,1.326-2.012,2.875-2.626,4.651c-0.617,1.774-0.923,3.681-0.923,5.716
			s0.306,3.93,0.923,5.68c0.614,1.752,1.491,3.302,2.626,4.65c1.136,1.35,2.509,2.391,4.118,3.126
			C164.117,83.66,165.869,84.026,167.763,84.026z"/>
		<path d="M201.349,94.322V44.617h19.597c5.255,0,9.81,1.065,13.668,3.195c3.858,2.131,6.841,5.067,8.948,8.806
			c2.105,3.739,3.159,8.024,3.159,12.853s-1.054,9.112-3.159,12.853c-2.107,3.739-5.09,6.674-8.948,8.804s-8.413,3.195-13.668,3.195
			H201.349z M214.91,83.316h5.468c2.46,0,4.639-0.543,6.533-1.633c1.892-1.089,3.383-2.686,4.473-4.793
			c1.088-2.106,1.633-4.58,1.633-7.42c0-2.887-0.545-5.361-1.633-7.42c-1.09-2.06-2.581-3.646-4.473-4.759
			c-1.895-1.111-4.073-1.669-6.533-1.669h-5.468V83.316z"/>
		<path d="M278.459,95.246c-3.93,0-7.527-0.652-10.793-1.953c-3.267-1.303-6.071-3.124-8.414-5.468
			c-2.343-2.343-4.167-5.076-5.468-8.202c-1.302-3.123-1.951-6.506-1.951-10.152c0-3.645,0.649-7.041,1.951-10.19
			c1.301-3.147,3.125-5.881,5.468-8.2s5.147-4.13,8.414-5.432c3.266-1.302,6.863-1.953,10.793-1.953
			c3.976,0,7.586,0.651,10.828,1.953s6.047,3.112,8.415,5.432c2.365,2.319,4.189,5.053,5.467,8.2
			c1.277,3.149,1.917,6.546,1.917,10.19c0,3.646-0.64,7.029-1.917,10.152c-1.277,3.126-3.102,5.859-5.467,8.202
			c-2.368,2.344-5.173,4.165-8.415,5.468C286.045,94.594,282.435,95.246,278.459,95.246z M278.459,84.026
			c1.94,0,3.703-0.366,5.29-1.1c1.585-0.735,2.957-1.776,4.118-3.126c1.159-1.349,2.035-2.898,2.628-4.65
			c0.591-1.75,0.887-3.645,0.887-5.68s-0.296-3.941-0.887-5.716c-0.593-1.776-1.469-3.325-2.628-4.651
			c-1.161-1.325-2.533-2.354-4.118-3.089c-1.587-0.732-3.35-1.101-5.29-1.101c-1.895,0-3.646,0.368-5.254,1.101
			c-1.609,0.734-2.982,1.764-4.118,3.089c-1.137,1.326-2.014,2.875-2.628,4.651c-0.615,1.774-0.924,3.681-0.924,5.716
			s0.309,3.93,0.924,5.68c0.614,1.752,1.491,3.302,2.628,4.65c1.136,1.35,2.509,2.391,4.118,3.126
			C274.813,83.66,276.564,84.026,278.459,84.026z"/>
	</g>
	<g>
		<path d="M312.565,94.441V58.675c0-4.44,1.256-7.92,3.773-10.435c2.514-2.515,5.992-3.773,10.435-3.773h19.695v11.466h-17.343
			c-0.851,0-1.586,0.293-2.205,0.88c-0.622,0.59-0.931,1.342-0.931,2.255v35.374H312.565z"/>
		<path d="M365.773,94.441c-2.745,0-5.243-0.686-7.497-2.058c-2.255-1.372-4.066-3.184-5.438-5.438
			c-1.373-2.254-2.058-4.754-2.058-7.496c0-3.2,0.685-5.912,2.058-8.134c1.372-2.219,3.184-3.92,5.438-5.095
			c2.254-1.176,4.752-1.764,7.497-1.764h18.226v-4.998c0-1.044-0.377-1.895-1.127-2.547c-0.751-0.653-1.617-0.979-2.597-0.979
			h-24.694V44.467h25.969c2.938,0,5.585,0.702,7.937,2.107c2.352,1.404,4.229,3.267,5.634,5.585c1.404,2.32,2.108,4.884,2.108,7.692
			v18.911c0,2.875-0.72,5.505-2.156,7.889c-1.438,2.385-3.366,4.279-5.781,5.684c-2.418,1.406-5.131,2.106-8.134,2.106H365.773z
			 M368.811,82.977h11.072c1.177,0,2.156-0.358,2.939-1.077c0.785-0.719,1.177-1.632,1.177-2.744v-5.781h-15.188
			c-1.307,0-2.434,0.474-3.381,1.421c-0.947,0.948-1.42,2.074-1.42,3.381c0,0.851,0.21,1.65,0.637,2.4
			c0.424,0.752,1.011,1.34,1.763,1.765C367.16,82.767,367.961,82.977,368.811,82.977z"/>
	</g>
	<g>
		<path d="M405.327,94.322V44.617h19.598c5.254,0,9.81,1.065,13.668,3.195c3.858,2.131,6.84,5.067,8.948,8.806
			c2.105,3.739,3.158,8.024,3.158,12.853s-1.053,9.112-3.158,12.853c-2.108,3.739-5.09,6.674-8.948,8.804s-8.414,3.195-13.668,3.195
			H405.327z M418.889,83.316h5.468c2.461,0,4.639-0.543,6.533-1.633c1.893-1.089,3.384-2.686,4.473-4.793
			c1.089-2.106,1.634-4.58,1.634-7.42c0-2.887-0.545-5.361-1.634-7.42c-1.089-2.06-2.58-3.646-4.473-4.759
			c-1.895-1.111-4.072-1.669-6.533-1.669h-5.468V83.316z"/>
		<path d="M457.16,94.322V83.316h8.095V55.623h-8.095V44.617h29.894v11.006h-8.166v27.693h8.166v11.006H457.16z"/>
		<path d="M520,95.246c-3.93,0-7.527-0.652-10.794-1.953c-3.266-1.303-6.07-3.124-8.414-5.468c-2.343-2.343-4.166-5.076-5.467-8.202
			c-1.302-3.123-1.952-6.506-1.952-10.152c0-3.645,0.65-7.041,1.952-10.19c1.301-3.147,3.124-5.881,5.467-8.2
			c2.344-2.319,5.148-4.13,8.414-5.432c3.267-1.302,6.864-1.953,10.794-1.953c3.976,0,7.585,0.651,10.828,1.953
			c3.241,1.302,6.047,3.112,8.414,5.432c2.366,2.319,4.189,5.053,5.468,8.2c1.277,3.149,1.917,6.546,1.917,10.19
			c0,3.646-0.64,7.029-1.917,10.152c-1.278,3.126-3.102,5.859-5.468,8.202c-2.367,2.344-5.173,4.165-8.414,5.468
			C527.585,94.594,523.976,95.246,520,95.246z M520,84.026c1.94,0,3.703-0.366,5.289-1.1c1.586-0.735,2.957-1.776,4.119-3.126
			c1.158-1.349,2.034-2.898,2.627-4.65c0.591-1.75,0.888-3.645,0.888-5.68s-0.297-3.941-0.888-5.716
			c-0.593-1.776-1.469-3.325-2.627-4.651c-1.162-1.325-2.533-2.354-4.119-3.089c-1.586-0.732-3.349-1.101-5.289-1.101
			c-1.895,0-3.646,0.368-5.255,1.101c-1.609,0.734-2.981,1.764-4.118,3.089c-1.136,1.326-2.013,2.875-2.627,4.651
			c-0.616,1.774-0.924,3.681-0.924,5.716s0.308,3.93,0.924,5.68c0.614,1.752,1.491,3.302,2.627,4.65
			c1.137,1.35,2.509,2.391,4.118,3.126C516.354,83.66,518.105,84.026,520,84.026z"/>
	</g>
	<g>
		<path fill="#FF5B5B" d="M577.369,71.619c-1.921,0-3.599-0.381-5.031-1.139c-1.433-0.759-2.545-1.853-3.337-3.287
			c-0.791-1.433-1.188-3.143-1.188-5.131v-8.899c0-0.507-0.117-0.952-0.354-1.34s-0.557-0.699-0.961-0.937
			c-0.404-0.234-0.843-0.353-1.313-0.353c-0.473,0-0.912,0.118-1.315,0.353c-0.404,0.237-0.724,0.549-0.961,0.937
			c-0.235,0.388-0.354,0.833-0.354,1.34v17.849h-6.928V54.175c0-2.191,0.431-3.986,1.289-5.386c0.859-1.396,2.015-2.444,3.465-3.135
			c1.45-0.691,3.051-1.037,4.804-1.037c1.75,0,3.343,0.346,4.775,1.037c1.435,0.69,2.588,1.738,3.465,3.135
			c0.878,1.399,1.314,3.194,1.314,5.386v8.897c0,0.475,0.117,0.91,0.355,1.315c0.235,0.404,0.557,0.727,0.961,0.961
			c0.404,0.235,0.841,0.353,1.313,0.353c0.507,0,0.952-0.117,1.34-0.353c0.388-0.234,0.7-0.557,0.937-0.961
			c0.234-0.405,0.352-0.841,0.352-1.315v-8.897c0-2.191,0.438-3.986,1.316-5.386c0.875-1.396,2.039-2.444,3.488-3.135
			c1.45-0.691,3.034-1.037,4.753-1.037c1.752,0,3.354,0.346,4.804,1.037c1.448,0.69,2.604,1.738,3.463,3.135
			c0.86,1.399,1.289,3.194,1.289,5.386v16.837h-6.926V53.163c0-0.507-0.117-0.952-0.354-1.34c-0.235-0.388-0.549-0.699-0.937-0.937
			c-0.388-0.234-0.833-0.353-1.339-0.353c-0.472,0-0.91,0.118-1.314,0.353c-0.404,0.237-0.725,0.549-0.96,0.937
			c-0.237,0.388-0.354,0.833-0.354,1.34v8.899c0,1.988-0.397,3.698-1.188,5.131c-0.794,1.435-1.906,2.528-3.337,3.287
			C580.967,71.238,579.29,71.619,577.369,71.619z"/>
		<path fill="#FF5B5B" d="M605.43,71.012V52.557c0-2.292,0.65-4.087,1.948-5.386c1.297-1.297,3.092-1.946,5.386-1.946h10.161v5.916
			h-8.95c-0.438,0-0.817,0.15-1.136,0.454c-0.322,0.304-0.48,0.691-0.48,1.164v18.253H605.43z"/>
	</g>
</g>
</svg>
